<?xml version="1.0" encoding="UTF-8"?>
<svg id="layer03" xmlns="http://www.w3.org/2000/svg" viewBox="0 0 1177.96 1320.68">
  <path d="M1071.33,1130.18V365.98c0-44.2-31.2-62.5-80-62.5H186.73c-48.8,0-80,18.3-80,62.5v764.2h0c22.9,36.6,68.6,44.2,105.1,19.8,45-33.5,22.9-88.4,22.9-88.4-7.6-14.5-26.7-17.5-12.2-52.6,10.7-18.3,18.3-40.4,18.3-40.4,0,0,.8-30.5-6.1-43.4-6.9-13-20.6-32.8-2.3-70.9,17.5-19.8,19.1-33.5,19.1-54.5s-17.5-40-11.4-68.2c0-17.5,19.8-56.4,19.8-76.9s-14.5-44.9-26.7-54.9-14.5-34.3-4.6-46.5,22.1-27.4,27.4-51.1c5.3-23.6-13.7-51-13.7-51,6.9-41.1,52.6-61.7,80-61.7h533.4c27.4,0,73.1,20.6,80,61.7,0,0-19.1,27.4-13.7,51,5.3,23.6,17.5,38.9,27.4,51.1s7.6,36.6-4.6,46.5-26.7,34.3-26.7,54.9,19.8,59.4,19.8,76.9c6.1,28.2-11.4,47.3-11.4,68.2s1.5,34.7,19.1,54.5c18.3,38.1,4.6,57.9-2.3,70.9-6.9,12.9-6.1,43.4-6.1,43.4,0,0,7.6,22.1,18.3,40.4,14.5,35.1-4.6,38.1-12.2,52.6,0,0-22.1,54.9,22.9,88.4,36.6,24.4,82.3,16.8,105.1-19.8h0Z"/>
</svg>