<?xml version="1.0" encoding="UTF-8"?>
<svg id="layor07" xmlns="http://www.w3.org/2000/svg" viewBox="0 0 1061.14 1132.16">
  <path d="M225.41,294.55v281.14h-61.33v-280.38s-99.43-24-139.43-73.14C-.15,189.03-6.21,129.6,6.36,81.6,18.93,33.6,70.36,2.85,90.93,3.99c36.57-9.08,82.29-1.85,118.86,13.31,0,0,46.86,14.01,65.71,44.87,16.95,20.57,14.04,53.33,42.86,53.33h650.29c45.37,0,87.24,6.1,87.24,67.81s11.81,79.92,0,104.53-50.83,7.33-55.24,37.18c-4.52,30.59,0,250.67,0,250.67h-69.71v-287.85l-705.52,6.71h0,0Z"/>
</svg>