<?xml version="1.0" encoding="UTF-8"?>
<svg id="layer08" xmlns="http://www.w3.org/2000/svg" viewBox="0 0 1177.96 1320.68">
  <path d="M1177.96,362.2c0-40.5-19.56-76.43-49.75-98.87,12.03-18.51,19.03-40.59,19.03-64.31,0-65.25-52.9-118.15-118.15-118.15-12.91,0-25.33,2.08-36.95,5.9-28.27-32.56-69.96-53.14-116.47-53.14-10.38,0-20.51,1.03-30.32,2.99C819.9,13.86,786.3.01,749.46.01c-27.49,0-53.17,7.71-75.01,21.08-19.66-13.31-43.38-21.09-68.92-21.09-31.27,0-59.81,11.67-81.52,30.87C502.29,11.67,473.75,0,442.48,0c-56.91,0-104.79,38.62-118.88,91.08-20.98-20.91-49.92-33.83-81.88-33.83-64.07,0-116,51.94-116,116,0,.14,0,.27,0,.41-3.21-.27-6.45-.41-9.73-.41C51.93,173.25,0,225.18,0,289.25c0,19.65,4.89,38.16,13.52,54.38-8.63,16.22-13.52,34.73-13.52,54.38,0,64.06,51.93,116,116,116v228.19h125.71v-254.74c10.62,3.2,21.87,4.93,33.53,4.93,35.36,0,67.01-15.82,88.29-40.77,30.27,19.64,66.37,31.06,105.14,31.06,26.2,0,51.17-5.22,73.95-14.65,18.41,10.97,39.92,17.27,62.91,17.27,32.13,0,61.38-12.31,83.3-32.47,22.49,24.33,54.67,39.57,90.41,39.57,26.01,0,50.12-8.07,70-21.84,19.88,13.77,43.99,21.84,70,21.84,9.36,0,18.48-1.05,27.24-3.03v252.83h125.71v-258.12c59.78-8.42,105.77-59.78,105.77-121.88Z"/>
</svg>