<?xml version="1.0" encoding="UTF-8"?>
<svg xmlns="http://www.w3.org/2000/svg" version="1.1" viewBox="0 0 1178 1320.7">
  <defs>
    <style>
      .cls-1 {
        display: none;
      }
    </style>
  </defs>
  <!-- Generator: Adobe Illustrator 28.7.1, SVG Export Plug-In . SVG Version: 1.2.0 Build 142)  -->
  <g>
    <g id="layer01" class="cls-1">
      <g id="_圖層_2">
        <path d="M992.5,303.5H185.4c-52.6,0-75.4,14.9-75.4,62.9v954.3s43.4-11.4,75.4-61.7,32-94.9,36.6-114.3,54.9-92.6,60.6-120,43.4-88,11.4-195.4c-24-66.3-35.4-66.3-49.1-105.1-13.7-38.9-29.7-133.7-19.4-195.4s25.1-141.7,114.3-141.7h498.5c89.1,0,104,80,114.3,141.7s-5.7,156.6-19.4,195.4c-13.7,38.9-25.1,38.9-49.1,105.1-32,107.4,5.7,168,11.4,195.4s56,100.6,60.6,120,4.6,64,36.6,114.3c32,50.3,75.4,61.7,75.4,61.7V366.4c0-48-22.9-62.9-75.4-62.9h-.2,0Z"/>
      </g>
    </g>
    <g id="layor07">
      <path d="M239.2,483.1v281.1h-61.3v-280.4s-99.4-24-139.4-73.1c-24.8-33.1-30.9-92.6-18.3-140.6,12.6-48,64-78.8,84.6-77.6,36.6-9.1,82.3-1.8,118.9,13.3,0,0,46.9,14,65.7,44.9,17,20.6,14,53.3,42.9,53.3h650.3c45.4,0,87.2,6.1,87.2,67.8s11.8,79.9,0,104.5-50.8,7.3-55.2,37.2c-4.5,30.6,0,250.7,0,250.7h-69.7v-287.9l-705.5,6.7h0,0Z"/>
    </g>
  </g>
</svg>