<?xml version="1.0" encoding="UTF-8"?>
<svg id="_圖層_1" data-name="圖層_1" xmlns="http://www.w3.org/2000/svg" viewBox="0 0 1840.39 1068">
  <defs>
    <style>
      .cls-1 {
        fill: none;
        stroke: #fbb03b;
        stroke-width: 3px;
      }
    </style>
  </defs>
  <polygon class="cls-1" points="1.5 305.49 216.91 305.49 216.91 239.86 82.83 239.86 82.83 185.91 206.44 185.91 206.44 121.89 82.83 121.89 82.83 71.16 217.72 71.16 217.72 5.53 1.5 5.53 1.5 305.49"/>
  <path class="cls-1" d="M441.89,213.49c-2.75,5.23-6.34,9.73-10.77,13.49-4.43,3.76-9.6,6.64-15.5,8.66-5.91,2.01-12.62,3.02-20.13,3.02-13.29,0-24.59-3.09-33.92-9.26-9.33-6.17-16.48-15.43-21.44-27.78-4.97-12.35-7.45-27.65-7.45-45.9s2.42-32.38,7.25-44.79c4.83-12.41,11.98-21.94,21.44-28.59,9.46-6.64,20.97-9.97,34.53-9.97,7.52,0,14.26,1.01,20.23,3.02,5.97,2.01,11.1,4.9,15.4,8.66,4.29,3.76,7.75,8.25,10.37,13.49,2.62,5.23,4.33,11.07,5.13,17.51h82.54c-1.88-18.12-6.51-34.22-13.89-48.32-7.38-14.09-17.05-25.97-28.99-35.63-11.95-9.66-25.8-17.01-41.57-22.04-15.77-5.03-32.99-7.55-51.64-7.55-26.85,0-51.21,5.87-73.08,17.62-21.88,11.75-39.26,29.09-52.14,52.04-12.88,22.95-19.33,51.14-19.33,84.55s6.34,61.17,19.02,84.05c12.68,22.88,29.93,40.23,51.74,52.04,21.81,11.81,46.4,17.72,73.78,17.72,22.01,0,41.3-3.46,57.88-10.37,16.58-6.91,30.53-16.01,41.87-27.28,11.34-11.27,20.06-23.55,26.17-36.84,6.11-13.29,9.63-26.3,10.57-39.06h-82.54c-.94,6.44-2.79,12.28-5.54,17.51Z"/>
  <polygon class="cls-1" points="643.71 185.1 751.62 185.1 751.62 305.49 832.95 305.49 832.95 5.53 751.62 5.53 751.62 119.47 643.71 119.47 643.71 5.53 562.38 5.53 562.38 305.49 643.71 305.49 643.71 185.1"/>
  <path class="cls-1" d="M938.14,291.8c22.08,11.81,46.74,17.72,73.99,17.72s51.87-5.87,73.88-17.62c22.01-11.74,39.49-29.06,52.44-51.94,12.95-22.88,19.43-50.96,19.43-84.25s-6.48-61.6-19.43-84.55c-12.95-22.95-30.43-40.29-52.44-52.04-22.01-11.74-46.64-17.62-73.88-17.62s-51.91,5.87-73.99,17.62c-22.08,11.75-39.56,29.09-52.44,52.04-12.88,22.95-19.33,51.14-19.33,84.55s6.44,61.17,19.33,84.05c12.88,22.88,30.37,40.23,52.44,52.04ZM957.27,110.11c4.76-12.41,11.74-21.81,20.94-28.18,9.19-6.37,20.5-9.56,33.92-9.56s24.93,3.19,34.12,9.56c9.19,6.38,16.14,15.77,20.84,28.18,4.7,12.41,7.05,27.61,7.05,45.6s-2.35,32.95-7.05,45.3c-4.7,12.35-11.65,21.71-20.84,28.08-9.19,6.38-20.57,9.56-34.12,9.56s-24.73-3.19-33.92-9.56c-9.19-6.37-16.18-15.73-20.94-28.08-4.76-12.35-7.15-27.45-7.15-45.3s2.38-33.18,7.15-45.6Z"/>
  <polygon class="cls-1" points="898.72 441.67 898.72 376.04 682.5 376.04 682.5 676.01 897.91 676.01 897.91 610.38 763.83 610.38 763.83 556.42 887.44 556.42 887.44 492.4 763.83 492.4 763.83 441.67 898.72 441.67"/>
  <path class="cls-1" d="M1122.89,584.01c-2.75,5.23-6.34,9.73-10.77,13.49-4.43,3.76-9.6,6.64-15.5,8.66-5.91,2.01-12.62,3.02-20.13,3.02-13.29,0-24.59-3.09-33.92-9.26-9.33-6.17-16.48-15.43-21.44-27.78-4.97-12.35-7.45-27.65-7.45-45.9s2.42-32.38,7.25-44.79c4.83-12.41,11.98-21.94,21.44-28.59,9.46-6.64,20.97-9.97,34.53-9.97,7.52,0,14.26,1.01,20.23,3.02,5.97,2.01,11.1,4.9,15.4,8.66,4.29,3.76,7.75,8.25,10.37,13.49,2.62,5.23,4.33,11.07,5.13,17.51h82.54c-1.88-18.12-6.51-34.22-13.89-48.32-7.38-14.09-17.05-25.97-28.99-35.63-11.95-9.66-25.8-17.01-41.57-22.04-15.77-5.03-32.99-7.55-51.64-7.55-26.85,0-51.21,5.87-73.08,17.62-21.88,11.75-39.26,29.09-52.14,52.04-12.88,22.95-19.33,51.14-19.33,84.55s6.34,61.17,19.02,84.05c12.68,22.88,29.93,40.23,51.74,52.04,21.81,11.81,46.4,17.72,73.78,17.72,22.01,0,41.3-3.46,57.88-10.37,16.58-6.91,30.53-16,41.87-27.28,11.34-11.27,20.06-23.55,26.17-36.84,6.11-13.29,9.63-26.3,10.57-39.06h-82.54c-.94,6.44-2.79,12.28-5.54,17.51Z"/>
  <polygon class="cls-1" points="1432.62 489.99 1324.71 489.99 1324.71 376.04 1243.38 376.04 1243.38 676.01 1324.71 676.01 1324.71 555.62 1432.62 555.62 1432.62 676.01 1513.95 676.01 1513.95 376.04 1432.62 376.04 1432.62 489.99"/>
  <path class="cls-1" d="M1819.46,441.67c-12.95-22.95-30.43-40.29-52.44-52.04-22.01-11.74-46.64-17.62-73.88-17.62s-51.91,5.87-73.99,17.62c-22.08,11.75-39.56,29.09-52.44,52.04-12.88,22.95-19.33,51.14-19.33,84.55s6.44,61.17,19.33,84.05c12.88,22.88,30.37,40.23,52.44,52.04,22.08,11.81,46.74,17.72,73.99,17.72s51.87-5.87,73.88-17.62c22.01-11.74,39.49-29.06,52.44-51.94,12.95-22.88,19.43-50.96,19.43-84.25s-6.48-61.6-19.43-84.55ZM1748.09,571.52c-4.7,12.35-11.65,21.71-20.84,28.08-9.19,6.38-20.57,9.56-34.12,9.56s-24.73-3.19-33.92-9.56c-9.19-6.37-16.18-15.73-20.94-28.08-4.76-12.35-7.15-27.45-7.15-45.3s2.38-33.18,7.15-45.6c4.76-12.41,11.74-21.81,20.94-28.18,9.19-6.37,20.5-9.56,33.92-9.56s24.93,3.19,34.12,9.56c9.19,6.38,16.14,15.77,20.84,28.18,4.7,12.41,7.05,27.61,7.05,45.6s-2.35,32.95-7.05,45.3Z"/>
  <polygon class="cls-1" points="1.5 1062.47 216.91 1062.47 216.91 996.84 82.83 996.84 82.83 942.89 206.44 942.89 206.44 878.87 82.83 878.87 82.83 828.14 217.72 828.14 217.72 762.51 1.5 762.51 1.5 1062.47"/>
  <path class="cls-1" d="M441.89,970.47c-2.75,5.23-6.34,9.73-10.77,13.49-4.43,3.76-9.6,6.64-15.5,8.66-5.91,2.01-12.62,3.02-20.13,3.02-13.29,0-24.59-3.09-33.92-9.26-9.33-6.17-16.48-15.43-21.44-27.78-4.97-12.35-7.45-27.65-7.45-45.9s2.42-32.38,7.25-44.79c4.83-12.41,11.98-21.94,21.44-28.59,9.46-6.64,20.97-9.97,34.53-9.97,7.52,0,14.26,1.01,20.23,3.02,5.97,2.01,11.1,4.9,15.4,8.66,4.29,3.76,7.75,8.25,10.37,13.49,2.62,5.23,4.33,11.07,5.13,17.51h82.54c-1.88-18.12-6.51-34.22-13.89-48.32-7.38-14.09-17.05-25.97-28.99-35.63-11.95-9.66-25.8-17.01-41.57-22.04-15.77-5.03-32.99-7.55-51.64-7.55-26.85,0-51.21,5.87-73.08,17.62-21.88,11.75-39.26,29.09-52.14,52.04-12.88,22.95-19.33,51.14-19.33,84.55s6.34,61.17,19.02,84.05c12.68,22.88,29.93,40.23,51.74,52.04,21.81,11.81,46.4,17.72,73.78,17.72,22.01,0,41.3-3.46,57.88-10.37,16.58-6.91,30.53-16.01,41.87-27.28,11.34-11.27,20.06-23.55,26.17-36.84,6.11-13.29,9.63-26.3,10.57-39.06h-82.54c-.94,6.44-2.79,12.28-5.54,17.51Z"/>
  <polygon class="cls-1" points="751.62 876.45 643.71 876.45 643.71 762.51 562.38 762.51 562.38 1062.47 643.71 1062.47 643.71 942.08 751.62 942.08 751.62 1062.47 832.95 1062.47 832.95 762.51 751.62 762.51 751.62 876.45"/>
  <path class="cls-1" d="M1086.01,776.1c-22.01-11.74-46.64-17.62-73.88-17.62s-51.91,5.87-73.99,17.62c-22.08,11.75-39.56,29.09-52.44,52.04-12.88,22.95-19.33,51.14-19.33,84.55s6.44,61.17,19.33,84.05c12.88,22.88,30.37,40.23,52.44,52.04,22.08,11.81,46.74,17.72,73.99,17.72s51.87-5.87,73.88-17.62c22.01-11.74,39.49-29.06,52.44-51.94,12.95-22.88,19.43-50.96,19.43-84.25s-6.48-61.6-19.43-84.55c-12.95-22.95-30.43-40.29-52.44-52.04ZM1067.09,957.99c-4.7,12.35-11.65,21.71-20.84,28.08-9.19,6.38-20.57,9.56-34.12,9.56s-24.73-3.19-33.92-9.56c-9.19-6.37-16.18-15.73-20.94-28.08-4.76-12.35-7.15-27.45-7.15-45.3s2.38-33.18,7.15-45.6c4.76-12.41,11.74-21.81,20.94-28.18,9.19-6.37,20.5-9.56,33.92-9.56s24.93,3.19,34.12,9.56c9.19,6.38,16.14,15.77,20.84,28.18,4.7,12.41,7.05,27.61,7.05,45.6s-2.35,32.95-7.05,45.3Z"/>
</svg>