<?xml version="1.0" encoding="UTF-8"?>
<svg id="acc01" xmlns="http://www.w3.org/2000/svg" viewBox="0 0 518.86 648.41">
  <defs>
    <style>
      .cls-1 {
        opacity: .4;
      }
    </style>
  </defs>
  <g>
    <circle class="cls-1" cx="219.37" cy="226.17" r="22.1"/>
    <circle class="cls-1" cx="299.87" cy="226.17" r="22.1"/>
  </g>
  <path d="M299.05,199.88c-13.66,0-24.89,10.42-26.16,23.75h-26.53c-1.28-13.33-12.5-23.75-26.16-23.75-14.52,0-26.29,11.77-26.29,26.29s11.77,26.29,26.29,26.29c13.67,0,24.9-10.43,26.16-23.77h26.53c1.27,13.34,12.49,23.77,26.16,23.77,14.52,0,26.29-11.77,26.29-26.29s-11.77-26.29-26.29-26.29ZM220.19,247.45c-11.75,0-21.28-9.53-21.28-21.28s9.53-21.28,21.28-21.28,21.28,9.53,21.28,21.28-9.53,21.28-21.28,21.28ZM299.05,247.45c-11.75,0-21.28-9.53-21.28-21.28s9.53-21.28,21.28-21.28,21.28,9.53,21.28,21.28-9.53,21.28-21.28,21.28Z"/>
</svg>