<?xml version="1.0" encoding="UTF-8"?>
<svg id="acc03" xmlns="http://www.w3.org/2000/svg" viewBox="0 0 518.86 648.41">
  <defs>
    <style>
      .cls-1 {
        opacity: .4;
      }
    </style>
  </defs>
  <g>
    <path class="cls-1" d="M202.67,203.35h32c5.05,0,9.14,4.1,9.14,9.14v16c0,13.88-11.27,25.14-25.14,25.14h0c-13.88,0-25.14-11.27-25.14-25.14v-16c0-5.05,4.1-9.14,9.14-9.14Z"/>
    <path class="cls-1" d="M282.09,203.35h32c5.05,0,9.14,4.1,9.14,9.14v16c0,13.88-11.27,25.14-25.14,25.14h0c-13.88,0-25.14-11.27-25.14-25.14v-16c0-5.05,4.1-9.14,9.14-9.14Z"/>
  </g>
  <path d="M317.31,201.62h-38.44c-4.95,0-8.97,4.02-8.97,8.97v12.44h-22.1v-12.44c0-4.95-4.02-8.97-8.97-8.97h-38.44c-4.95,0-8.97,4.02-8.97,8.97v17.39c0,15.57,12.62,28.19,28.19,28.19h0c15.27,0,27.7-12.14,28.17-27.3h22.14c.47,15.16,12.9,27.3,28.17,27.3h0c15.57,0,28.19-12.62,28.19-28.19v-17.39c0-4.95-4.02-8.97-8.97-8.97ZM242.38,227.67c0,12.57-10.19,22.77-22.77,22.77h0c-12.57,0-22.77-10.19-22.77-22.77v-15.26c0-3.33,2.7-6.03,6.03-6.03h33.48c3.33,0,6.03,2.7,6.03,6.03v15.26ZM320.86,227.67c0,12.57-10.19,22.77-22.77,22.77h0c-12.57,0-22.77-10.19-22.77-22.77v-15.26c0-3.33,2.7-6.03,6.03-6.03h33.48c3.33,0,6.03,2.7,6.03,6.03v15.26Z"/>
</svg>