<?xml version="1.0" encoding="UTF-8"?>
<svg id="acc02" xmlns="http://www.w3.org/2000/svg" viewBox="0 0 518.86 648.41">
  <defs>
    <style>
      .cls-1 {
        opacity: .4;
      }
    </style>
  </defs>
  <g>
    <circle class="cls-1" cx="224.4" cy="244.53" r="19.14"/>
    <circle class="cls-1" cx="294.12" cy="244.53" r="19.14"/>
  </g>
  <path d="M293.41,221.76c-11.83,0-21.56,9.03-22.66,20.57h-22.98c-1.1-11.54-10.83-20.57-22.66-20.57-12.57,0-22.77,10.19-22.77,22.77s10.19,22.77,22.77,22.77c11.84,0,21.57-9.04,22.66-20.59h22.98c1.1,11.55,10.82,20.59,22.66,20.59,12.57,0,22.77-10.19,22.77-22.77s-10.19-22.77-22.77-22.77ZM225.1,262.96c-10.18,0-18.43-8.25-18.43-18.43s8.25-18.43,18.43-18.43,18.43,8.25,18.43,18.43-8.25,18.43-18.43,18.43ZM293.41,262.96c-10.18,0-18.43-8.25-18.43-18.43s8.25-18.43,18.43-18.43,18.43,8.25,18.43,18.43-8.25,18.43-18.43,18.43Z"/>
</svg>